<svg width="1340" height="698" xmlns="http://www.w3.org/2000/svg"><g><path d="M-20,-44L-114,95L61,35Z" fill="#b61a4b" stroke="#b61a4b"/><path d="M-20,-44L61,35L73,-27Z" fill="#b01749" stroke="#b01749"/><path d="M-20,-44L73,-27L203,-60Z" fill="#aa1a47" stroke="#aa1a47"/><path d="M73,-27L61,35L203,-60Z" fill="#bc274c" stroke="#bc274c"/><path d="M203,-60L61,35L271,21Z" fill="#cd384d" stroke="#cd384d"/><path d="M203,-60L271,21L317,-53Z" fill="#c93f45" stroke="#c93f45"/><path d="M203,-60L317,-53L541,-53Z" fill="#c14e4c" stroke="#c14e4c"/><path d="M203,-60L541,-53L1163,-118Z" fill="#b07869" stroke="#b07869"/><path d="M317,-53L271,21L342,20Z" fill="#d8514d" stroke="#d8514d"/><path d="M317,-53L342,20L541,-53Z" fill="#cf6054" stroke="#cf6054"/><path d="M541,-53L342,20L497,75Z" fill="#e37862" stroke="#e37862"/><path d="M541,-53L497,75L662,-19Z" fill="#db856e" stroke="#db856e"/><path d="M541,-53L662,-19L855,-56Z" fill="#ba7f6f" stroke="#ba7f6f"/><path d="M541,-53L855,-56L964,-82Z" fill="#9a7071" stroke="#9a7071"/><path d="M541,-53L964,-82L1163,-118Z" fill="#766670" stroke="#766670"/><path d="M662,-19L497,75L725,37Z" fill="#e49175" stroke="#e49175"/><path d="M662,-19L725,37L855,-56Z" fill="#ba8275" stroke="#ba8275"/><path d="M855,-56L725,37L774,63Z" fill="#bf867a" stroke="#bf867a"/><path d="M855,-56L774,63L977,31Z" fill="#a97d7b" stroke="#a97d7b"/><path d="M855,-56L977,31L964,-82Z" fill="#826976" stroke="#826976"/><path d="M964,-82L977,31L1163,-118Z" fill="#644e7c" stroke="#644e7c"/><path d="M1163,-118L977,31L1137,91Z" fill="#7b5284" stroke="#7b5284"/><path d="M1163,-118L1137,91L1229,-23Z" fill="#803b79" stroke="#803b79"/><path d="M1163,-118L1229,-23L1468,-66Z" fill="#7a1768" stroke="#7a1768"/><path d="M1229,-23L1137,91L1246,76Z" fill="#a3477e" stroke="#a3477e"/><path d="M1229,-23L1246,76L1410,102Z" fill="#b43575" stroke="#b43575"/><path d="M1229,-23L1410,102L1468,-66Z" fill="#aa1868" stroke="#aa1868"/><path d="M1468,-66L1410,102L1435,332Z" fill="#d53a63" stroke="#d53a63"/><path d="M-114,95L-114,357L-53,181Z" fill="#bc6857" stroke="#bc6857"/><path d="M-114,95L-53,181L61,35Z" fill="#c7334b" stroke="#c7334b"/><path d="M61,35L-53,181L75,266Z" fill="#d45450" stroke="#d45450"/><path d="M61,35L75,266L276,212Z" fill="#eb7258" stroke="#eb7258"/><path d="M61,35L276,212L271,21Z" fill="#f25852" stroke="#f25852"/><path d="M271,21L276,212L342,20Z" fill="#fa6952" stroke="#fa6952"/><path d="M342,20L276,212L408,268Z" fill="#fc9959" stroke="#fc9959"/><path d="M342,20L408,268L497,75Z" fill="#fe935d" stroke="#fe935d"/><path d="M497,75L408,268L544,225Z" fill="#ffc372" stroke="#ffc372"/><path d="M497,75L544,225L725,37Z" fill="#faaa73" stroke="#faaa73"/><path d="M725,37L544,225L671,250Z" fill="#f5cb7b" stroke="#f5cb7b"/><path d="M725,37L671,250L774,63Z" fill="#e7ae79" stroke="#e7ae79"/><path d="M774,63L671,250L852,189Z" fill="#dec380" stroke="#dec380"/><path d="M774,63L852,189L977,31Z" fill="#c4977f" stroke="#c4977f"/><path d="M977,31L852,189L942,213Z" fill="#b6a67c" stroke="#b6a67c"/><path d="M977,31L942,213L1069,216Z" fill="#a79d83" stroke="#a79d83"/><path d="M977,31L1069,216L1137,91Z" fill="#9b7d88" stroke="#9b7d88"/><path d="M1137,91L1069,216L1218,185Z" fill="#a48486" stroke="#a48486"/><path d="M1137,91L1218,185L1246,76Z" fill="#ae617c" stroke="#ae617c"/><path d="M1246,76L1218,185L1384,216Z" fill="#bb6377" stroke="#bb6377"/><path d="M1246,76L1384,216L1410,102Z" fill="#c6476c" stroke="#c6476c"/><path d="M1410,102L1384,216L1435,332Z" fill="#d06a79" stroke="#d06a79"/><path d="M-53,181L-114,357L65,319Z" fill="#c88073" stroke="#c88073"/><path d="M-53,181L65,319L75,266Z" fill="#d57f6d" stroke="#d57f6d"/><path d="M75,266L65,319L203,413Z" fill="#e69a7f" stroke="#e69a7f"/><path d="M75,266L203,413L276,212Z" fill="#f0a87a" stroke="#f0a87a"/><path d="M276,212L203,413L373,381Z" fill="#faba7d" stroke="#faba7d"/><path d="M276,212L373,381L408,268Z" fill="#fdcb7f" stroke="#fdcb7f"/><path d="M408,268L373,381L513,420Z" fill="#fcdc91" stroke="#fcdc91"/><path d="M408,268L513,420L544,225Z" fill="#ffe794" stroke="#ffe794"/><path d="M544,225L513,420L674,342Z" fill="#fbf3a0" stroke="#fbf3a0"/><path d="M544,225L674,342L671,250Z" fill="#f6f59b" stroke="#f6f59b"/><path d="M671,250L674,342L833,330Z" fill="#e6f5a5" stroke="#e6f5a5"/><path d="M671,250L833,330L852,189Z" fill="#d9e89c" stroke="#d9e89c"/><path d="M852,189L833,330L942,213Z" fill="#c3db99" stroke="#c3db99"/><path d="M942,213L833,330L981,435Z" fill="#b8e3ab" stroke="#b8e3ab"/><path d="M942,213L981,435L1069,216Z" fill="#a7d4ac" stroke="#a7d4ac"/><path d="M1069,216L981,435L1158,364Z" fill="#99c4b8" stroke="#99c4b8"/><path d="M1069,216L1158,364L1218,185Z" fill="#a5aba1" stroke="#a5aba1"/><path d="M1218,185L1158,364L1324,395Z" fill="#b3a1a5" stroke="#b3a1a5"/><path d="M1218,185L1324,395L1384,216Z" fill="#c08c95" stroke="#c08c95"/><path d="M1384,216L1324,395L1435,332Z" fill="#cb8297" stroke="#cb8297"/><path d="M-114,357L-28,854L-47,636Z" fill="#753582" stroke="#753582"/><path d="M-114,357L-47,636L-56,553Z" fill="#716786" stroke="#716786"/><path d="M-114,357L-56,553L65,319Z" fill="#b28081" stroke="#b28081"/><path d="M65,319L-56,553L113,557Z" fill="#9c8086" stroke="#9c8086"/><path d="M65,319L113,557L203,413Z" fill="#c99b89" stroke="#c99b89"/><path d="M203,413L113,557L235,510Z" fill="#ab9989" stroke="#ab9989"/><path d="M203,413L235,510L316,490Z" fill="#bfaa85" stroke="#bfaa85"/><path d="M203,413L316,490L373,381Z" fill="#dcbc87" stroke="#dcbc87"/><path d="M373,381L316,490L489,489Z" fill="#d0ce92" stroke="#d0ce92"/><path d="M373,381L489,489L513,420Z" fill="#dedf9c" stroke="#dedf9c"/><path d="M513,420L489,489L657,467Z" fill="#cceaa9" stroke="#cceaa9"/><path d="M513,420L657,467L674,342Z" fill="#e2f6ab" stroke="#e2f6ab"/><path d="M674,342L657,467L833,330Z" fill="#dcf6ad" stroke="#dcf6ad"/><path d="M833,330L657,467L776,585Z" fill="#adecb3" stroke="#adecb3"/><path d="M833,330L776,585L981,435Z" fill="#9ae3b4" stroke="#9ae3b4"/><path d="M981,435L776,585L942,628Z" fill="#5fbbc1" stroke="#5fbbc1"/><path d="M981,435L942,628L1019,553Z" fill="#51b3c3" stroke="#51b3c3"/><path d="M981,435L1019,553L1160,537Z" fill="#50b2c4" stroke="#50b2c4"/><path d="M981,435L1160,537L1158,364Z" fill="#74b9be" stroke="#74b9be"/><path d="M1158,364L1160,537L1274,488Z" fill="#79a2b5" stroke="#79a2b5"/><path d="M1158,364L1274,488L1324,395Z" fill="#9e9dae" stroke="#9e9dae"/><path d="M1324,395L1274,488L1372,553Z" fill="#8584a8" stroke="#8584a8"/><path d="M1324,395L1372,553L1435,332Z" fill="#ad81a2" stroke="#ad81a2"/><path d="M1435,332L1372,553L1405,664Z" fill="#8066a5" stroke="#8066a5"/><path d="M1435,332L1405,664L1389,848Z" fill="#8436a0" stroke="#8436a0"/><path d="M-56,553L-47,636L113,557Z" fill="#76478c" stroke="#76478c"/><path d="M113,557L-47,636L16,717Z" fill="#903281" stroke="#903281"/><path d="M113,557L16,717L256,634Z" fill="#a54986" stroke="#a54986"/><path d="M113,557L256,634L235,510Z" fill="#947893" stroke="#947893"/><path d="M235,510L256,634L316,490Z" fill="#9e8f8f" stroke="#9e8f8f"/><path d="M316,490L256,634L421,662Z" fill="#a88591" stroke="#a88591"/><path d="M316,490L421,662L489,489Z" fill="#a1afa0" stroke="#a1afa0"/><path d="M489,489L421,662L524,700Z" fill="#b39aa0" stroke="#b39aa0"/><path d="M489,489L524,700L640,688Z" fill="#b5a1a7" stroke="#b5a1a7"/><path d="M489,489L640,688L657,467Z" fill="#9ccbb7" stroke="#9ccbb7"/><path d="M657,467L640,688L776,585Z" fill="#94bfb9" stroke="#94bfb9"/><path d="M776,585L640,688L781,646Z" fill="#a29fad" stroke="#a29fad"/><path d="M776,585L781,646L942,628Z" fill="#839fb5" stroke="#839fb5"/><path d="M1019,553L942,628L1127,644Z" fill="#5286c0" stroke="#5286c0"/><path d="M1019,553L1127,644L1160,537Z" fill="#4385c8" stroke="#4385c8"/><path d="M1160,537L1127,644L1313,645Z" fill="#5f62b7" stroke="#5f62b7"/><path d="M1160,537L1313,645L1274,488Z" fill="#5571bd" stroke="#5571bd"/><path d="M1274,488L1313,645L1372,553Z" fill="#615fb5" stroke="#615fb5"/><path d="M1372,553L1313,645L1405,664Z" fill="#7e39a3" stroke="#7e39a3"/><path d="M-47,636L-28,854L16,717Z" fill="#ac0068" stroke="#ac0068"/><path d="M16,717L-28,854L112,848Z" fill="#d2085a" stroke="#d2085a"/><path d="M16,717L112,848L182,837Z" fill="#de185f" stroke="#de185f"/><path d="M16,717L182,837L256,634Z" fill="#cb2270" stroke="#cb2270"/><path d="M256,634L182,837L382,872Z" fill="#ec3860" stroke="#ec3860"/><path d="M256,634L382,872L421,662Z" fill="#d94c76" stroke="#d94c76"/><path d="M421,662L382,872L524,700Z" fill="#e35f7d" stroke="#e35f7d"/><path d="M524,700L382,872L500,876Z" fill="#fe6471" stroke="#fe6471"/><path d="M524,700L500,876L659,864Z" fill="#fc727d" stroke="#fc727d"/><path d="M524,700L659,864L640,688Z" fill="#df768e" stroke="#df768e"/><path d="M640,688L659,864L781,646Z" fill="#ce7996" stroke="#ce7996"/><path d="M781,646L659,864L844,882Z" fill="#d7738a" stroke="#d7738a"/><path d="M781,646L844,882L976,767Z" fill="#b26893" stroke="#b26893"/><path d="M781,646L976,767L942,628Z" fill="#897ba7" stroke="#897ba7"/><path d="M942,628L976,767L1127,644Z" fill="#7067ae" stroke="#7067ae"/><path d="M1127,644L976,767L1115,800Z" fill="#7b44a6" stroke="#7b44a6"/><path d="M1127,644L1115,800L1313,645Z" fill="#7e3aa4" stroke="#7e3aa4"/><path d="M1313,645L1115,800L1305,874Z" fill="#a5208d" stroke="#a5208d"/><path d="M1313,645L1305,874L1389,848Z" fill="#ba0c80" stroke="#ba0c80"/><path d="M1313,645L1389,848L1405,664Z" fill="#a5088c" stroke="#a5088c"/><path d="M-28,854L382,872L112,848Z" fill="#ed2353" stroke="#ed2353"/><path d="M112,848L382,872L182,837Z" fill="#f52f51" stroke="#f52f51"/><path d="M500,876L844,882L659,864Z" fill="#f37b74" stroke="#f37b74"/><path d="M844,882L1305,874L1115,800Z" fill="#9b418a" stroke="#9b418a"/><path d="M844,882L1115,800L976,767Z" fill="#ab598c" stroke="#ab598c"/></g></svg>